HIERARCHY
ROOT Hips
{
	OFFSET 7.7125 38.4228 -161.4020
	CHANNELS 6 Xposition Yposition Zposition Xrotation Yrotation Zrotation
	JOINT Spine
	{
		OFFSET 0.0000 7.4000 0.0000
		CHANNELS 3 Xrotation Yrotation Zrotation
		JOINT Head
		{
			OFFSET 0.0000 16.5127 0.0000
			CHANNELS 3 Xrotation Yrotation Zrotation
			End Site
			{
				OFFSET 0.0000 4.5275 0.0000
			}
		}
		JOINT LeftShoulder
		{
			OFFSET 0.0000 11.0747 0.0000
			CHANNELS 3 Xrotation Yrotation Zrotation
			JOINT LeftArm
			{
				OFFSET 8.2554 0.0000 0.0000
				CHANNELS 3 Xrotation Yrotation Zrotation
				JOINT LeftForeArm
				{
					OFFSET 11.1751 0.0000 0.0000
					CHANNELS 3 Xrotation Yrotation Zrotation
					JOINT LeftHand
					{
						OFFSET 9.4775 0.0000 0.0000
						CHANNELS 3 Xrotation Yrotation Zrotation
						JOINT LeftHandThumb1
						{
							OFFSET 0.0000 0.0000 0.0000
							CHANNELS 3 Xrotation Yrotation Zrotation
							End Site
							{
								OFFSET 0.0000 0.0000 3.9370
							}
						}
						JOINT LeftHand_End
						{
							OFFSET 3.9370 0.0000 0.0000
							CHANNELS 3 Xrotation Yrotation Zrotation
							End Site
							{
								OFFSET 0.0000 0.0000 0.0000
							}
						}
					}
				}
			}
		}
		JOINT RightShoulder
		{
			OFFSET 0.0000 11.0747 0.0000
			CHANNELS 3 Xrotation Yrotation Zrotation
			JOINT RightArm
			{
				OFFSET -8.2554 0.0000 0.0000
				CHANNELS 3 Xrotation Yrotation Zrotation
				JOINT RightForeArm
				{
					OFFSET -11.1751 0.0000 0.0000
					CHANNELS 3 Xrotation Yrotation Zrotation
					JOINT RightHand
					{
						OFFSET -9.4775 0.0000 0.0000
						CHANNELS 3 Xrotation Yrotation Zrotation
						JOINT RightHandThumb1
						{
							OFFSET 0.0000 0.0000 0.0000
							CHANNELS 3 Xrotation Yrotation Zrotation
							End Site
							{
								OFFSET 0.0000 0.0000 3.9370
							}
						}
						JOINT RightHand_End
						{
							OFFSET -3.9370 0.0000 0.0000
							CHANNELS 3 Xrotation Yrotation Zrotation
							End Site
							{
								OFFSET 0.0000 0.0000 0.0000
							}
						}
					}
				}
			}
		}
	}
	JOINT LeftUpLeg
	{
		OFFSET 3.6339 0.0000 0.0000
		CHANNELS 3 Xrotation Yrotation Zrotation
		JOINT LeftLeg
		{
			OFFSET 0.0000 -18.3740 0.0000
			CHANNELS 3 Xrotation Yrotation Zrotation
			JOINT LeftFoot
			{
				OFFSET 0.0000 -17.5024 0.0000
				CHANNELS 3 Xrotation Yrotation Zrotation
				JOINT LeftToeBase
				{
					OFFSET 0.0000 -1.4944 5.5772
					CHANNELS 3 Xrotation Yrotation Zrotation
					End Site
					{
						OFFSET 0.0000 0.0000 2.9527
					}
				}
			}
		}
	}
	JOINT RightUpLeg
	{
		OFFSET -3.6339 0.0000 0.0000
		CHANNELS 3 Xrotation Yrotation Zrotation
		JOINT RightLeg
		{
			OFFSET 0.0000 -18.3740 0.0000
			CHANNELS 3 Xrotation Yrotation Zrotation
			JOINT RightFoot
			{
				OFFSET 0.0000 -17.5024 0.0000
				CHANNELS 3 Xrotation Yrotation Zrotation
				JOINT RightToeBase
				{
					OFFSET 0.0000 -1.4944 5.5772
					CHANNELS 3 Xrotation Yrotation Zrotation
					End Site
					{
						OFFSET 0.0000 0.0000 2.9527
					}
				}
			}
		}
	}
}
MOTION
Frames: 10
Frame Time: 0.008333
1.9346 34.5787 -160.3560 -2.8982 -15.9816 -2.2959 23.5879 -10.1890 -10.5267 -22.7678 20.0873 11.4281 -6.6661 15.5290 8.5721 -10.0914 -13.2349 -66.0911 29.9285 -11.2028 6.3818 -0.1296 17.1134 0.4403 -0.0000 0.0000 -0.0000 -0.0000 0.0000 -0.0000 4.1015 -2.3398 -2.2188 -9.4264 18.8728 91.7385 2.2294 20.1434 -0.7681 -1.0262 -4.1733 -13.8279 -0.0000 0.0000 -0.0000 -0.0000 0.0000 -0.0000 -1.4788 -5.2309 13.8767 42.6789 -0.0000 0.0000 -39.6867 8.2016 -30.9618 2.9804 -0.0000 0.0000 -33.1232 -3.2437 -6.7288 68.3756 0.0000 -0.0000 -25.0111 17.9876 47.5191 -6.3264 0.0000 -0.0000 
1.7914 34.4988 -160.4130 -3.1687 -15.7063 -2.8996 24.9491 -10.0841 -9.5816 -23.6391 19.8331 11.3633 -8.0835 13.9249 8.9075 -12.6039 -9.5734 -69.2565 36.6241 -8.5423 6.3006 -0.4403 20.3043 1.2688 -0.0000 0.0000 -0.0000 -0.0000 0.0000 -0.0000 4.0751 -1.8187 -2.2938 -10.0050 20.0782 92.6386 -0.4170 16.5431 0.1187 -0.9850 -4.6677 -11.9302 -0.0000 0.0000 -0.0000 -0.0000 0.0000 -0.0000 -1.6026 -5.3285 14.7727 43.4753 -0.0000 -0.0000 -40.0165 7.8990 -30.9637 2.9593 0.0000 0.0000 -33.5939 -3.4601 -6.8035 69.1450 0.0000 0.0000 -25.3733 17.0288 46.3624 -6.4328 -0.0000 -0.0000 
1.6523 34.4392 -160.4560 -3.4279 -15.7931 -3.3522 26.1697 -9.7444 -8.9727 -24.4824 19.5722 11.4324 -9.3516 12.4196 9.4204 -14.1848 -4.7545 -72.4046 44.2306 -7.9949 7.7109 -0.0351 23.4874 0.0882 -0.0000 0.0000 -0.0000 -0.0000 0.0000 -0.0000 3.7275 -1.4812 -2.3873 -10.1729 21.4489 93.3618 -2.2920 13.4203 0.5322 -0.8738 -5.4005 -9.2050 -0.0000 0.0000 -0.0000 -0.0000 0.0000 -0.0000 -1.3584 -5.2298 15.4521 43.6750 0.0000 0.0000 -40.3358 7.8465 -31.1158 2.9170 0.0000 -0.0000 -34.0227 -3.2929 -6.8921 69.6809 0.0000 -0.0000 -25.5177 15.6083 45.4930 -6.3071 -0.0000 -0.0000 
1.5081 34.4063 -160.4670 -3.6862 -16.0418 -3.8038 27.2752 -9.5692 -8.3826 -25.3986 19.6891 11.5277 -10.3208 11.5381 9.8390 -14.8274 -0.7759 -75.4230 51.8409 -8.1922 10.2785 0.8757 24.6285 -2.1006 -0.0000 0.0000 -0.0000 -0.0000 0.0000 -0.0000 4.0433 -1.0189 -2.4356 -10.7565 23.0124 93.7650 -3.7620 10.8844 0.7113 -0.6954 -6.5092 -6.1112 -0.0000 0.0000 -0.0000 -0.0000 0.0000 -0.0000 -0.7859 -5.1121 16.0500 43.3901 -0.0000 0.0000 -40.5270 8.0868 -31.5219 2.9699 -0.0000 -0.0000 -34.3734 -3.0965 -7.0157 70.0043 0.0000 -0.0000 -25.4522 14.0641 44.5091 -6.3745 -0.0000 0.0000 
1.3566 34.3944 -160.4630 -3.7220 -16.4788 -4.0161 27.9734 -9.5222 -8.0944 -26.2985 20.0172 11.7481 -10.7980 11.1985 10.2267 -15.2533 1.7662 -78.3005 57.7096 -8.2802 12.8381 1.6517 22.8108 -4.2538 -0.0000 0.0000 -0.0000 -0.0000 0.0000 -0.0000 4.3064 -0.5084 -2.4325 -11.1360 24.3296 93.9474 -5.5794 8.6280 0.8396 -0.2607 -7.7996 -1.9205 -0.0000 0.0000 -0.0000 -0.0000 0.0000 -0.0000 -0.2962 -4.7780 16.4464 42.8454 0.0000 0.0000 -40.6618 8.3519 -31.7032 3.2651 -0.0000 0.0000 -34.9161 -2.6925 -7.2670 70.1609 0.0000 -0.0000 -25.4105 12.5279 43.2538 -6.4858 0.0000 -0.0000 
1.1948 34.4075 -160.4440 -3.6412 -17.0442 -4.1676 28.4881 -9.4262 -7.8241 -27.0798 20.3263 11.8235 -11.3532 10.9872 10.5784 -14.8622 1.9103 -80.8375 60.4544 -8.8197 15.1362 1.7550 19.1136 -5.3457 -0.0000 0.0000 -0.0000 -0.0000 0.0000 -0.0000 4.3791 -0.1686 -2.3371 -11.0064 25.1061 93.8540 -5.3097 6.9628 0.6455 0.3946 -8.9146 2.5448 -0.0000 0.0000 -0.0000 -0.0000 0.0000 -0.0000 0.1705 -4.2873 16.8225 42.1404 -0.0000 0.0000 -40.6282 8.6761 -31.6518 3.5388 -0.0000 -0.0000 -35.4577 -2.1688 -7.4877 69.9790 0.0000 -0.0000 -25.3367 10.9800 41.8467 -6.5888 0.0000 -0.0000 
1.0206 34.4435 -160.4060 -3.5326 -17.5177 -4.2900 28.9398 -9.3951 -7.4879 -27.8041 20.6766 11.8189 -11.5783 11.0352 10.8220 -14.6704 -0.1495 -83.0832 59.6838 -10.2857 16.9810 1.5390 15.3873 -5.7816 -0.0000 0.0000 -0.0000 -0.0000 0.0000 -0.0000 4.5083 -0.0025 -2.1508 -10.5826 25.1369 93.5150 -4.5497 5.7961 0.4604 1.1597 -10.5790 6.2922 -0.0000 0.0000 -0.0000 -0.0000 0.0000 -0.0000 0.6871 -3.8439 17.1728 41.2628 0.0000 -0.0000 -40.3292 8.8415 -31.8623 3.4227 -0.0000 0.0000 -35.8483 -1.7106 -7.8054 69.5049 -0.0000 0.0000 -25.4033 9.3994 40.3087 -6.3143 0.0000 0.0000 
0.8521 34.4942 -160.3600 -3.2675 -17.9963 -4.2282 29.1800 -9.4907 -7.2118 -28.4607 21.0130 11.7556 -11.5854 11.4361 10.8898 -14.9037 -3.3738 -85.0299 57.4444 -12.1025 18.1800 0.9807 12.2274 -4.6207 -0.0000 0.0000 -0.0000 -0.0000 0.0000 -0.0000 4.7458 0.0084 -1.9528 -9.9657 24.2747 93.0200 -2.6584 5.1128 0.2371 1.9969 -12.3286 9.2745 -0.0000 0.0000 -0.0000 -0.0000 0.0000 -0.0000 1.0805 -3.5543 17.3050 40.3947 0.0000 -0.0000 -39.9506 9.1789 -31.5285 3.4016 -0.0000 -0.0000 -36.3145 -1.2174 -8.3380 68.6887 -0.0000 0.0000 -24.9436 8.1552 39.2514 -7.0058 0.0000 -0.0000 
0.6546 34.5650 -160.2960 -3.0064 -18.3912 -4.2459 29.4154 -9.4542 -6.8283 -29.0333 21.1638 11.7016 -11.6391 11.8085 10.8786 -15.2025 -6.9747 -86.8343 53.8570 -14.7176 19.1802 0.5950 10.3273 -3.3155 -0.0000 0.0000 -0.0000 -0.0000 0.0000 -0.0000 5.5510 -0.2244 -1.5913 -9.6899 22.9893 92.2794 -0.7853 4.8121 0.0659 2.9541 -14.9101 11.3406 -0.0000 0.0000 -0.0000 -0.0000 0.0000 -0.0000 1.6091 -3.2958 17.5598 39.2828 -0.0000 0.0000 -39.3230 9.4311 -31.5137 3.0521 0.0000 0.0000 -36.5970 -0.8268 -8.8259 67.6520 -0.0000 0.0000 -24.6895 6.7712 37.9476 -6.8710 0.0000 -0.0000 
0.4630 34.6468 -160.2210 -2.6284 -18.6520 -4.1849 29.5498 -9.6457 -6.3148 -29.6694 21.4182 11.6167 -11.7527 12.3988 10.7141 -15.6164 -10.6191 -88.4660 49.3955 -17.9998 19.8230 0.3154 9.1202 -1.9891 -0.0000 0.0000 -0.0000 -0.0000 0.0000 -0.0000 5.6974 -0.5331 -1.5201 -8.8166 21.6330 91.6734 0.8714 4.6473 -0.0706 3.5794 -15.9818 12.8001 -0.0000 0.0000 -0.0000 -0.0000 0.0000 -0.0000 2.1306 -3.3777 17.6868 38.0913 -0.0000 -0.0000 -38.6567 9.9263 -31.2831 2.8070 -0.0000 -0.0000 -36.8479 -0.5962 -9.5399 66.3612 0.0000 0.0000 -24.5897 5.4462 36.6645 -6.6391 -0.0000 -0.0000 
